<svg id="Giraffe" xmlns="http://www.w3.org/2000/svg" width="99.119" height="171.822" viewBox="0 0 99.119 171.822">
  <path id="giraffe_body" d="M895.15,464.9c-1.452.074-8.645,0-8.645,0s6.849-2.771,7.731-15.023c-.183-.309,3.435-9.55,2.027-16.993-.046.08,2.783-6.481,2.29-19.73.149.3-.5-18.3-4.317-20.2.16.275,3.7-6.092-3.092-39.231.046.034-5.107-34.513-5.222-34.662s.626-2.594-6.631-7.867c.152-.1,9.067-4.086,13.5-4.534-1.195-5.238,2.43,1.451,2.628,1.572.386,2.335,4.74,6.74,4.66,7.97s-3.194,1.211,3.94,18.433c-.16-.115-.046,4.809,5.3,14.852s-1.145,4.431,9.081,13.741,9.046,13.008,31.146,17.291,19.283,23.932,19.283,23.932-1.947-7.248-3.55-9.39,1.786,4-1.912,15.722,4.775,16.993,3.893,18.253-3.789,10.705-2.668,38.819c-.01-.022-.77.857-.77.857h-6.446s-1.562-1.525,1.847-4.223c1.542-1.027,2.23-22.008,2.23-22.008s-.743-10.975-2.285.223c-.42,11.458-.342,18.305-.342,18.305s-.126.8-2.047,2.009c.088,3.464-1.763,3.3-1.763,3.3h-6.541s-.164-1.374,5.679-5.677c-.009.007,2.76-25.8,0-28.236-.07-.108-2.177-10.617-12.11-23.579.115-.2-10.678,6.234-25.294-.495-.163-.108-.872,1.952-2.017,25.357-.229.046-1.145,15.814,0,24.665,0-.16-1.683,5.37,0,7.168s-9.355,1.832-9.355,1.832-1.157-1.225,1.489-3.55c3.206-.149,2.977-4.729,2.977-4.729s1.958-18.825-.87-25.387c.149.195,1.443-8.359-2.107-21.986.08-.183-3.481,19.077-7.558,31.6-.263-.069-1.378,13.162-1.31,13.146a16.4,16.4,0,0,1-2.514,3.741c-.092.052-.377,1.1.613,3.436C896.116,463.726,896.6,464.822,895.15,464.9Z" transform="translate(-869.824 -296.885)"/>
  <g id="head" transform="translate(0 0)">
    <path id="giraffe_head" d="M894.587,306.668c-.065-.084,1.219,1.909-2.782,3.634-1.1.477-1.673,4.886-1.673,4.886s-2.816-.736-6.037-1.641c-1.071-.3-3.17-.443-4.48-.846-.94-.289-1.016-.828-1.42-1.042.183-.115-1.64-2.221-2.854-6.034.229-.115-2.29-2.519-4.58-2.863s-2.061-4.89-2.061-4.89,1.947-2.485,13.4,2.863c.046-.183,1.031.6,6.3-.309a5.891,5.891,0,0,1,3.147,2.119c.578.32,4.519-3.77,6.083-.652S894.587,306.668,894.587,306.668Z" transform="translate(-868.694 -297.296)"/>
    <path id="giraffe_eye" d="M882.518,303.884s3.373,4.006,3.574,1.5-3.574-1.5-3.574-1.5" transform="translate(-868.694 -297.296)" fill="#fff" stroke="#707070" stroke-width="0.1"/>
  </g>
</svg>
